# xmcd CD database file
#
# Track frame offsets:
#	150
#	12924
#	33406
#	43971
#	57307
#	72593
#	83018
#	97419
#	108352
#	121233
#	134945
#	147364
#	164980
#	180335
#	194141
#	203510
#	219684
#	229021
#	251707
#	270836
#	290448
#	308160
#	318111
#	328302
#	340987
#
# Disc length: 4666 seconds
#
# Revision: 0
# Processed by: cddbd v1.5.2PL0 Copyright (c) Steve Scherf et al.
# Submitted via: CDex 1.51
#
DISCID=8d123819
DTITLE=Ellington, Duke - All American Jazz and Midnight In Paris (+Bonus)
DYEAR=2013
DGENRE=Jazz
TTITLE0=Back To School
TTITLE1=I've Just Seen Her (As Nobody Else Has Seen Her)
TTITLE2=Which Way
TTITLE3=If I Were You
TTITLE4=Once Upon A Time
TTITLE5=Nightlife
TTITLE6=Our Children
TTITLE7=I Couldn't Have Done It Alone
TTITLE8=We Speak The Same Language
TTITLE9=What A Country
TTITLE10=Under Paris Skies
TTITLE11=I Wish You Love
TTITLE12=Mademoiselle De Paris
TTITLE13=Comme Ci, Comme Ca
TTITLE14=Speak To Me Of Love
TTITLE15=A Midnight In Paris
TTITLE16=(All Of A Sudden) My Heart Sings
TTITLE17=Guitar Amour
TTITLE18=The Petite Waltz
TTITLE19=Paris Blues 
TTITLE20=Javapachacha (Apache)
TTITLE21=No Regrets
TTITLE22=The River Seine
TTITLE23=Paris Blues (Rare Vocal Version)(bonus)
TTITLE24=Guitar Amour (Solo Guitar Version)(bonus)
EXTD=YEAR: 2013
EXTT0=
EXTT1=
EXTT2=
EXTT3=
EXTT4=
EXTT5=
EXTT6=
EXTT7=
EXTT8=
EXTT9=
EXTT10=
EXTT11=
EXTT12=
EXTT13=
EXTT14=
EXTT15=
EXTT16=
EXTT17=
EXTT18=
EXTT19=
EXTT20=
EXTT21=
EXTT22=
EXTT23=
EXTT24=
PLAYORDER=
